<?xml version="1.0" encoding="utf-8"?>
<!-- Generator: Adobe Illustrator 21.0.0, SVG Export Plug-In . SVG Version: 6.00 Build 0)  -->
<svg version="1.1" id="Layer_1" xmlns="http://www.w3.org/2000/svg" xmlns:xlink="http://www.w3.org/1999/xlink" x="0px" y="0px"
	 viewBox="0 0 44 44" style="enable-background:new 0 0 44 44;" xml:space="preserve">
<circle style="fill:#87C55A;stroke:#6FBD44;stroke-width:2;stroke-miterlimit:10;" cx="22" cy="22" r="21"/>
<g>
	<path style="fill:#FFFFFF;" d="M33.6,21.7c1.7,0,3.1,1.4,3.1,3.1c0,1.7-1.4,3.1-3.1,3.1c-1.7,0-3.1-1.4-3.1-3.1
		C30.5,23,31.9,21.7,33.6,21.7z"/>
	<path style="fill:#FFFFFF;" d="M29,31l-5-6.9l3.6-3.6c0.5-0.5,0.8-1.2,0.8-1.9c0-1.5-1.2-2.8-2.8-2.8v0c-0.8,0-1.6,0.4-2.1,0.9l0,0
		l-5.2,5c0,0,0-10.4,0-10.4c0-1.5-1.2-2.8-2.7-2.8c-1.5,0-2.7,1.3-2.7,2.8c0,0,0,21.2,0,21.2c0,1.5,1.2,2.8,2.7,2.8
		c1.5,0,2.6-1.2,2.7-2.6l0-3.6l1.4-1.3l4.6,6.1c0.5,0.8,1.4,1.4,2.4,1.4c1.5,0,2.8-1.3,2.8-2.8C29.4,32,29.3,31.4,29,31z"/>
</g>
</svg>
