<?xml version="1.0" encoding="utf-8"?>
<!-- Generator: Adobe Illustrator 21.0.0, SVG Export Plug-In . SVG Version: 6.00 Build 0)  -->
<svg version="1.1" id="Layer_1" xmlns="http://www.w3.org/2000/svg" xmlns:xlink="http://www.w3.org/1999/xlink" x="0px" y="0px"
	 viewBox="0 0 44 44" style="enable-background:new 0 0 44 44;" xml:space="preserve">
<circle style="fill:#67BBEF;stroke:#56ACEE;stroke-width:2;stroke-miterlimit:10;" cx="22" cy="22" r="21"/>
<path style="fill:#FFFFFF;" d="M35,14.2c-1,0.4-2,0.7-3.1,0.9c1.1-0.7,1.9-1.8,2.3-3.1c-1,0.6-2.2,1.1-3.4,1.3
	c-1-1.1-2.4-1.8-3.9-1.8c-2.9,0-5.3,2.5-5.3,5.6c0,0.4,0,0.9,0.1,1.3c-4.4-0.2-8.4-2.4-11-5.8c-0.5,0.8-0.7,1.8-0.7,2.8
	c0,1.9,0.9,3.6,2.4,4.6c-0.9,0-1.7-0.3-2.4-0.7l0,0c0,2.7,1.8,5,4.3,5.5c-0.4,0.1-0.9,0.2-1.4,0.2c-0.3,0-0.7,0-1-0.1
	c0.7,2.2,2.6,3.8,5,3.9c-1.8,1.5-4.1,2.4-6.6,2.4c-0.4,0-0.9,0-1.3-0.1c2.4,1.6,5.2,2.5,8.2,2.5c9.8,0,15.2-8.5,15.2-15.8
	c0-0.2,0-0.5,0-0.7C33.4,16.3,34.3,15.3,35,14.2z"/>
</svg>
