<?xml version="1.0" encoding="utf-8"?>
<!-- Generator: Adobe Illustrator 21.0.0, SVG Export Plug-In . SVG Version: 6.00 Build 0)  -->
<svg version="1.1" id="Layer_1" xmlns="http://www.w3.org/2000/svg" xmlns:xlink="http://www.w3.org/1999/xlink" x="0px" y="0px"
	 viewBox="0 0 44 44" style="enable-background:new 0 0 44 44;" xml:space="preserve">
<path style="fill:#97D3BC;stroke:#7FCAB1;stroke-width:2;stroke-miterlimit:10;" d="M41.3,16.2C36.9,1.8,30.6-1.6,16.2,2.7
	s-17.8,10.6-13.5,25s10.6,17.8,25,13.5S45.6,30.6,41.3,16.2z"/>
<path style="fill:#FFFFFF;" d="M35.4,22.7c-0.4-1-1.6-1.7-2.8-1.3l-2.8,0.9L28,16.9l2.8-0.9c1-0.4,1.7-1.6,1.3-2.8
	c-0.4-1-1.6-1.7-2.8-1.3l-2.8,0.9L25.7,10c-0.4-1-1.6-1.7-2.8-1.3c-1,0.4-1.7,1.6-1.3,2.8l0.9,2.8L16.9,16L16,13.2
	c-0.4-1-1.6-1.7-2.8-1.3c-1.2,0.4-1.7,1.7-1.3,2.9l0.9,2.8l-2.8,0.9c-1,0.4-1.7,1.6-1.3,2.8c0.3,0.8,1,1.4,2,1.4
	c0.3,0,0.5,0,0.8-0.1l2.6-0.9l1.8,5.5L13.2,28c-1,0.4-1.7,1.6-1.3,2.8c0.3,0.8,1,1.4,2,1.4c0.3,0,0.5,0,0.8-0.1l2.8-0.9l0.9,2.8
	c0.3,0.8,1,1.4,2,1.4c0.3,0,0.5,0,0.8-0.1c1-0.4,1.7-1.6,1.3-2.8l-0.9-2.8l5.6-1.8l0.9,2.8c0.3,0.8,1,1.4,2,1.4c0.3,0,0.5,0,0.8-0.1
	c1-0.4,1.7-1.6,1.3-2.8l-0.9-2.8l2.8-0.9C35.1,25.1,35.6,24,35.4,22.7z M20.1,25.7l-1.8-5.3l5.6-1.9l1.8,5.3L20.1,25.7z"/>
</svg>
