<?xml version="1.0" encoding="utf-8"?>
<!-- Generator: Adobe Illustrator 21.0.0, SVG Export Plug-In . SVG Version: 6.00 Build 0)  -->
<svg version="1.1" id="Layer_1" xmlns="http://www.w3.org/2000/svg" xmlns:xlink="http://www.w3.org/1999/xlink" x="0px" y="0px"
	 viewBox="0 0 44 44" style="enable-background:new 0 0 44 44;" xml:space="preserve">
<circle style="fill:#E85749;stroke:#DA4935;stroke-width:2;stroke-miterlimit:10;" cx="22" cy="22" r="21"/>
<g>
	<g>
		<path style="fill:#FFFFFF;" d="M26,20.4h-9.3l0,3.4l5.5,0c-0.8,4.1-6.4,5.6-9.3,2.8c-3-2.4-2.9-7.6,0.3-9.8
			c2.2-1.8,5.3-1.3,7.5,0.2c0.9-0.8,1.7-1.7,2.5-2.6c-1.8-1.5-4.1-2.5-6.5-2.4c-5-0.2-9.6,4.3-9.7,9.3c-0.3,4.1,2.4,8.2,6.2,9.6
			c3.8,1.5,8.6,0.5,11-3C25.8,25.8,26.1,23,26,20.4z"/>
	</g>
</g>
<g>
	<line style="fill:none;stroke:#FFFFFF;stroke-width:2;stroke-miterlimit:10;" x1="33" y1="17" x2="33" y2="25"/>
	<line style="fill:none;stroke:#FFFFFF;stroke-width:2;stroke-miterlimit:10;" x1="37" y1="21" x2="29" y2="21"/>
</g>
</svg>
