<?xml version="1.0" encoding="utf-8"?>
<!-- Generator: Adobe Illustrator 21.0.0, SVG Export Plug-In . SVG Version: 6.00 Build 0)  -->
<svg version="1.1" id="Layer_1" xmlns="http://www.w3.org/2000/svg" xmlns:xlink="http://www.w3.org/1999/xlink" x="0px" y="0px"
	 viewBox="0 0 44 44" style="enable-background:new 0 0 44 44;" xml:space="preserve">
<circle style="fill:#10A05F;stroke:#008850;stroke-width:2;stroke-miterlimit:10;" cx="22" cy="22" r="21"/>
<path style="fill-rule:evenodd;clip-rule:evenodd;fill:#FFFFFF;" d="M16.4,21.8l8.6-4.3c0.7,0.6,1.7,1,2.7,1c2.3,0,4.2-1.9,4.2-4.2
	S30.1,10,27.8,10s-4.2,1.9-4.2,4.2l0,0.2l-8.6,4.3c-0.7-0.6-1.7-1-2.7-1C9.9,17.8,8,19.7,8,22s1.9,4.2,4.2,4.2c1,0,2-0.4,2.7-1
	l8.6,4.3l0,0.2c0,2.3,1.9,4.2,4.2,4.2s4.2-1.9,4.2-4.2s-1.9-4.2-4.2-4.2c-1,0-2,0.4-2.7,1l-8.6-4.3V21.8z"/>
</svg>
