<?xml version="1.0" encoding="utf-8"?>
<!-- Generator: Adobe Illustrator 21.0.0, SVG Export Plug-In . SVG Version: 6.00 Build 0)  -->
<svg version="1.1" id="Layer_1" xmlns="http://www.w3.org/2000/svg" xmlns:xlink="http://www.w3.org/1999/xlink" x="0px" y="0px"
	 viewBox="0 0 44 44" style="enable-background:new 0 0 44 44;" xml:space="preserve">
<circle style="fill:#75AEB5;stroke:#619FAC;stroke-width:2;stroke-miterlimit:10;" cx="22" cy="22" r="21"/>
<path style="fill:#FFFFFF;" d="M10,18.2l1,1.3c0,0,2-1.6,2.7-0.8c0.7,0.8,3.2,10.4,4.1,12.2c0.7,1.6,2.8,3.6,5.1,2.1
	c2.3-1.5,9.7-7.9,11.1-15.5c1.3-7.6-9-6-10.1,0.6c2.7-1.7,4.2,0.7,2.8,3.3c-1.4,2.6-2.7,4.3-3.3,4.3c-0.7,0-1.2-1.8-1.9-4.8
	c-0.8-3.2-0.8-8.9-4.1-8.2C14.1,13.3,10,18.2,10,18.2z"/>
</svg>
