<?xml version="1.0" encoding="utf-8"?>
<!-- Generator: Adobe Illustrator 21.0.0, SVG Export Plug-In . SVG Version: 6.00 Build 0)  -->
<svg version="1.1" id="Layer_1" xmlns="http://www.w3.org/2000/svg" xmlns:xlink="http://www.w3.org/1999/xlink" x="0px" y="0px"
	 viewBox="0 0 44 44" style="enable-background:new 0 0 44 44;" xml:space="preserve">
<circle style="fill:#2097EF;stroke:#067EE6;stroke-width:2;stroke-miterlimit:10;" cx="22" cy="22" r="21"/>
<g>
	<g>
		<g>
			<path style="fill:#FFFFFF;" d="M16.6,11L9,15.7l5.3,4l7.7-4.5L16.6,11z M9,23.8l7.6,4.7l5.4-4.2l-7.7-4.5L9,23.8z M22,24.3
				l5.4,4.2l7.6-4.7l-5.3-4L22,24.3z M35,15.7L27.4,11L22,15.2l7.7,4.5L35,15.7z"/>
		</g>
	</g>
	<path style="fill:#FFFFFF;" d="M27.4,30.6L22,26.3l-5.4,4.2l-2.3-1.4v1.5L22,35l7.7-4.4v-1.5L27.4,30.6z"/>
</g>
</svg>
