<?xml version="1.0" encoding="utf-8"?>
<!-- Generator: Adobe Illustrator 21.0.0, SVG Export Plug-In . SVG Version: 6.00 Build 0)  -->
<svg version="1.1" id="Layer_1" xmlns="http://www.w3.org/2000/svg" xmlns:xlink="http://www.w3.org/1999/xlink" x="0px" y="0px"
	 viewBox="0 0 44 44" style="enable-background:new 0 0 44 44;" xml:space="preserve">
<circle style="fill:#7F8081;stroke:#6D6E71;stroke-width:2;stroke-miterlimit:10;" cx="22" cy="22" r="21"/>
<path style="fill-rule:evenodd;clip-rule:evenodd;fill:#FFFFFF;" d="M25.2,11.7c0.8-1.1,1.4-2.6,1.2-4.2c-1.3,0.1-2.9,1-3.8,2.1
	c-0.8,1-1.5,2.6-1.2,4.1C22.8,13.8,24.3,12.9,25.2,11.7z M32.4,26.6c-0.6,1.4-0.9,2-1.6,3.2c-1,1.7-2.5,3.8-4.4,3.8
	c-1.6,0-2-1.1-4.3-1.1c-2.2,0-2.7,1.1-4.3,1.1c-1.8,0-3.2-1.9-4.3-3.6c-2.9-4.7-3.2-10.1-1.4-13.1c1.3-2.1,3.3-3.3,5.2-3.3
	c1.9,0,3.2,1.1,4.8,1.1c1.6,0,2.5-1.1,4.7-1.1c1.7,0,3.5,1,4.8,2.6C27.4,18.6,28.1,24.9,32.4,26.6z"/>
</svg>
