<?xml version="1.0" encoding="utf-8"?>
<!-- Generator: Adobe Illustrator 21.0.0, SVG Export Plug-In . SVG Version: 6.00 Build 0)  -->
<svg version="1.1" id="Layer_1" xmlns="http://www.w3.org/2000/svg" xmlns:xlink="http://www.w3.org/1999/xlink" x="0px" y="0px"
	 viewBox="0 0 44 44" style="enable-background:new 0 0 44 44;" xml:space="preserve">
<circle style="fill:#FF5F2E;stroke:#FF4400;stroke-width:2;stroke-miterlimit:10;" cx="22" cy="22" r="21"/>
<g>
	
		<ellipse style="fill-rule:evenodd;clip-rule:evenodd;fill:none;stroke:#FFFFFF;stroke-width:2;stroke-miterlimit:10;" cx="22" cy="25.5" rx="12" ry="8"/>
	<path style="fill-rule:evenodd;clip-rule:evenodd;fill:none;stroke:#FFFFFF;stroke-width:2;stroke-miterlimit:10;" d="M14.3,19.3
		c-0.7-0.7-1.6-1.1-2.7-1.1c-2,0-3.6,1.4-3.6,3.2c0,1.3,0.9,2.4,2.1,2.9C10.6,22.4,12.1,20.6,14.3,19.3z"/>
	<path style="fill-rule:evenodd;clip-rule:evenodd;fill:none;stroke:#FFFFFF;stroke-width:2;stroke-miterlimit:10;" d="M32.4,18.2
		c-1.1,0-2.1,0.4-2.7,1.1c2.2,1.2,3.7,3,4.2,5c1.3-0.5,2.1-1.6,2.1-2.9C36,19.7,34.4,18.2,32.4,18.2z"/>
	
		<path style="fill-rule:evenodd;clip-rule:evenodd;fill:none;stroke:#FFFFFF;stroke-width:2;stroke-linecap:round;stroke-miterlimit:10;" d="
		M16.8,28.3c0.8,1,2.8,1.7,5.2,1.7c2.4,0,4.4-0.7,5.2-1.7"/>
	<g>
		
			<circle style="fill-rule:evenodd;clip-rule:evenodd;fill:none;stroke:#FFFFFF;stroke-width:2;stroke-linecap:round;stroke-miterlimit:10;" cx="17.5" cy="23.8" r="0.8"/>
		
			<circle style="fill-rule:evenodd;clip-rule:evenodd;fill:none;stroke:#FFFFFF;stroke-width:2;stroke-linecap:round;stroke-miterlimit:10;" cx="26.5" cy="23.8" r="0.8"/>
	</g>
	
		<path style="fill-rule:evenodd;clip-rule:evenodd;fill:none;stroke:#FFFFFF;stroke-width:2;stroke-linecap:round;stroke-miterlimit:10;" d="
		M22.2,17.5c0,0-0.6-8.7,6.7-4.6"/>
	
		<circle style="fill-rule:evenodd;clip-rule:evenodd;fill:none;stroke:#FFFFFF;stroke-width:2;stroke-linecap:round;stroke-miterlimit:10;" cx="31.4" cy="13.3" r="2.6"/>
</g>
</svg>
