<?xml version="1.0" encoding="utf-8"?>
<!-- Generator: Adobe Illustrator 21.0.0, SVG Export Plug-In . SVG Version: 6.00 Build 0)  -->
<svg version="1.1" id="Layer_1" xmlns="http://www.w3.org/2000/svg" xmlns:xlink="http://www.w3.org/1999/xlink" x="0px" y="0px"
	 viewBox="0 0 44 44" style="enable-background:new 0 0 44 44;" xml:space="preserve">
<g>
	<path style="fill:#C03741;stroke:#B7252A;stroke-width:2;stroke-linejoin:round;stroke-miterlimit:10;" d="M22,43
		c-1.9,0-3.8-0.3-5.6-0.8c1-1.6,1.6-3,2-4.3c0.2-0.7,1-4,1.4-5.3c1,1.3,3.1,2.3,5.1,2.3c6.8,0,11.7-6.2,11.7-14.8
		c0-6.1-5.1-12.4-13.7-12.4c-7.6,0-15.4,5.1-15.4,13.5c0,4.1,1.3,6.8,4.1,8c0.2,0.1,0.3,0.1,0.5,0.1c0.5,0,0.8-0.3,0.9-0.8l0.4-1.7
		c0.2-0.6,0.1-0.9-0.4-1.4c-0.9-1.1-0.9-2-0.9-3.6c0-4.8,3.6-9.9,10.2-9.9c5.2,0,8.6,3.1,8.6,7.9c0,6.3-2.8,11-6.5,11
		c-1,0-2-0.4-2.6-1.2c-0.6-0.7-0.8-1.6-0.5-2.6c0.2-1,0.5-2,0.8-2.9c0.5-1.7,1-3.4,1-4.7c0-2.1-1.2-3.4-3.1-3.4
		c-2.4,0-4.4,2.5-4.4,5.8c0,1.8,0.5,3.1,0.7,3.4c-0.2,1-2.3,9.9-2.7,11.5c-0.3,1.3-0.4,2.8-0.4,4.5C5.8,37.6,1,30.2,1,22
		C1,10.4,10.4,1,22,1s21,9.4,21,21S33.6,43,22,43z"/>
</g>
</svg>
