<?xml version="1.0" encoding="utf-8"?>
<!-- Generator: Adobe Illustrator 21.0.0, SVG Export Plug-In . SVG Version: 6.00 Build 0)  -->
<svg version="1.1" id="Layer_1" xmlns="http://www.w3.org/2000/svg" xmlns:xlink="http://www.w3.org/1999/xlink" x="0px" y="0px"
	 viewBox="0 0 44 44" style="enable-background:new 0 0 44 44;" xml:space="preserve">
<circle style="fill:#14C496;stroke:#00B589;stroke-width:2;stroke-miterlimit:10;" cx="22" cy="22" r="21"/>
<path style="fill:#FFFFFF;" d="M33,22.4c-0.6,0.2-1.3,0.2-1.8,0.2c-3.2,0-5.6-2.4-5.6-6.5c0-2,0.7-3.1,1.8-3.1c1,0,1.6,0.9,1.6,2.8
	c0,1.1,0,1.3-0.2,2c0,0,1,1.8,3.6,1.3c0.6-1.3,0.6-2.1,0.6-3.6c0-4.1-2-6.5-5.6-6.5c-3.7,0-5.9,3-5.9,7c0,4,1.7,7.4,4.6,8.9
	c-1.2,2.6-2.7,4.8-4.3,6.5c-2.9-3.7-5.5-8.7-6.6-18.4H11c2,16.2,7.9,21.3,9.4,22.3c0.9,0.6,1.6,0.5,2.4,0.1c1.3-0.8,5.1-4.8,7.2-9.5
	c0.9,0,1.9-0.1,3-0.4V22.4z"/>
</svg>
