<?xml version="1.0" encoding="utf-8"?>
<!-- Generator: Adobe Illustrator 21.0.0, SVG Export Plug-In . SVG Version: 6.00 Build 0)  -->
<svg version="1.1" id="Layer_1" xmlns="http://www.w3.org/2000/svg" xmlns:xlink="http://www.w3.org/1999/xlink" x="0px" y="0px"
	 viewBox="0 0 44 44" style="enable-background:new 0 0 44 44;" xml:space="preserve">
<circle style="fill:#537391;stroke:#466484;stroke-width:2;stroke-miterlimit:10;" cx="22" cy="22" r="21"/>
<path style="fill:#FFFFFF;" d="M26.2,30.1c-2.1,0-3.2-1.6-3.2-2.8c0-0.5,0-3.5,0-7.2h5v-4h-5c0-3.2,0-6,0-6s-1.8,0-3.5,0
	c0,5.2-4.5,6.2-4.5,6.2V20h3c0,0,0,5.6,0,8.6c0,3,2.7,5.4,6.1,5.4s4.9-1.3,4.9-1.3v-3.9C29,28.7,28.2,30.1,26.2,30.1z"/>
</svg>
