<?xml version="1.0" encoding="utf-8"?>
<!-- Generator: Adobe Illustrator 21.0.0, SVG Export Plug-In . SVG Version: 6.00 Build 0)  -->
<svg version="1.1" id="Layer_1" xmlns="http://www.w3.org/2000/svg" xmlns:xlink="http://www.w3.org/1999/xlink" x="0px" y="0px"
	 viewBox="0 0 44 44" style="enable-background:new 0 0 44 44;" xml:space="preserve">
<path style="fill-rule:evenodd;clip-rule:evenodd;fill:#353535;stroke:#191919;stroke-width:2;stroke-miterlimit:10;" d="M27.3,42.3
	c-0.1-0.2-0.1-0.4-0.1-0.5c0-0.7,0-3,0-5.9c0-2-0.7-3.3-1.4-4c4.7-0.5,9.6-2.3,9.6-10.6c0-2.3-0.8-4.3-2.2-5.7
	c0.2-0.5,0.9-2.7-0.2-5.7c0,0-1.8-0.6-5.8,2.2c-1.7-0.5-3.5-0.7-5.3-0.7c-1.8,0-3.6,0.2-5.2,0.7c-4-2.8-5.8-2.2-5.8-2.2
	c-1.1,3-0.4,5.1-0.2,5.7c-1.3,1.5-2.2,3.4-2.2,5.7c0,8.2,4.9,10.1,9.6,10.6c-0.6,0.5-1.1,1.5-1.3,2.9c-1.2,0.6-4.1,1.3-5.9-2
	c0,0-1.1-2.1-3.2-2.2c0,0-2.1,0-0.1,1.3c0,0,1.4,0.7,2.3,3.1c0,0,2,4.2,6.9,3.1l0,3.6c0,0.2-0.1,0.4-0.1,0.5C7.7,39.9,1,31.8,1,22
	C1,10.4,10.4,1,22,1s21,9.4,21,21C43,31.8,36.3,39.9,27.3,42.3z"/>
</svg>
