<?xml version="1.0" encoding="utf-8"?>
<!-- Generator: Adobe Illustrator 21.0.0, SVG Export Plug-In . SVG Version: 6.00 Build 0)  -->
<svg version="1.1" id="Layer_1" xmlns="http://www.w3.org/2000/svg" xmlns:xlink="http://www.w3.org/1999/xlink" x="0px" y="0px"
	 viewBox="0 0 44 44" style="enable-background:new 0 0 44 44;" xml:space="preserve">
<path style="fill-rule:evenodd;clip-rule:evenodd;fill:#19C0F4;stroke:#00AFF0;stroke-width:2;stroke-miterlimit:10;" d="M41.2,22
	c0-10.7-8.6-19.3-19.3-19.3c-1.1,0-2.1,0.1-3.1,0.2C17,1.7,14.8,1,12.5,1C6.2,1,1,6.2,1,12.6c0,2.3,0.7,4.5,1.9,6.3
	c-0.2,1-0.2,2-0.2,3c0,10.7,8.6,19.3,19.3,19.3c1.2,0,2.4-0.1,3.5-0.3c1.8,1.1,3.9,1.8,6.1,1.8c6.3,0,11.5-5.2,11.5-11.6
	c0-2.4-0.7-4.7-2-6.5C41.1,23.7,41.2,22.9,41.2,22z"/>
<path style="fill-rule:evenodd;clip-rule:evenodd;fill:#FFFFFF;" d="M23.6,35.4c-5.8,0.3-8.5-1-11-3.3c-2.8-2.6-1.7-5.6,0.6-5.8
	c2.2-0.2,3.6,2.6,4.8,3.3c1.2,0.8,5.8,2.5,8.2-0.3c2.6-3-1.8-4.6-5-5.1c-4.6-0.7-10.4-3.2-9.9-8.1c0.5-4.9,4.1-7.4,8-7.8
	c5-0.5,8.2,0.8,10.7,3c3,2.5,1.4,5.4-0.5,5.6c-1.9,0.2-4-4.2-8.1-4.2c-4.3-0.1-7.1,4.5-1.9,5.8c5.3,1.3,10.9,1.8,12.9,6.7
	C34.6,30,29.4,35.1,23.6,35.4z"/>
</svg>
