<?xml version="1.0" encoding="utf-8"?>
<!-- Generator: Adobe Illustrator 21.0.0, SVG Export Plug-In . SVG Version: 6.00 Build 0)  -->
<svg version="1.1" id="Layer_1" xmlns="http://www.w3.org/2000/svg" xmlns:xlink="http://www.w3.org/1999/xlink" x="0px" y="0px"
	 viewBox="0 0 44 44" style="enable-background:new 0 0 44 44;" xml:space="preserve">
<path style="fill:#E9444C;stroke:#D0222B;stroke-width:2;stroke-linejoin:round;stroke-miterlimit:10;" d="M42.6,13.4
	c0,0-0.4-3-1.7-4.3c-1.6-1.7-3.4-1.7-4.2-1.8C30.8,6.9,22,6.9,22,6.9h0c0,0-8.8,0-14.7,0.4C6.5,7.4,4.7,7.5,3.1,9.2
	c-1.3,1.3-1.7,4.3-1.7,4.3S1,16.9,1,20.4v3.3c0,3.5,0.4,6.9,0.4,6.9s0.4,3,1.7,4.3c1.6,1.7,3.7,1.7,4.6,1.8C11.1,37,22,37.1,22,37.1
	s8.8,0,14.7-0.4c0.8-0.1,2.6-0.1,4.2-1.8c1.3-1.3,1.7-4.3,1.7-4.3s0.4-3.5,0.4-6.9v-3.3C43,16.9,42.6,13.4,42.6,13.4z"/>
<polygon style="fill:#FFFFFF;" points="17.7,27.6 17.7,15.5 29,21.6 "/>
</svg>
