<?xml version="1.0" encoding="utf-8"?>
<!-- Generator: Adobe Illustrator 21.0.0, SVG Export Plug-In . SVG Version: 6.00 Build 0)  -->
<svg version="1.1" id="Layer_1" xmlns="http://www.w3.org/2000/svg" xmlns:xlink="http://www.w3.org/1999/xlink" x="0px" y="0px"
	 viewBox="0 0 44 44" style="enable-background:new 0 0 44 44;" xml:space="preserve">
<circle style="fill:#2D3947;stroke:#232E3E;stroke-width:2;stroke-miterlimit:10;" cx="22" cy="22" r="21"/>
<g>
	<path style="fill:none;stroke:#F7981D;stroke-width:2;stroke-linecap:round;stroke-linejoin:round;stroke-miterlimit:10;" d="
		M32.2,31.2c-0.3,0.2-0.6,0.4-1.1,0.7c-1.3,0.8-2.9,1.4-4.5,1.9c-1.7,0.4-3.3,0.7-4.9,0.7c-2.4,0-4.8-0.4-6.9-1.3
		c-2.2-0.9-4.1-2.1-5.8-3.7"/>
	<path style="fill:none;stroke:#F7981D;stroke-width:2;stroke-linecap:round;stroke-linejoin:round;stroke-miterlimit:10;" d="
		M30.2,29.4c0.8-0.5,1.7-0.7,2.6-0.8c0.5,0,1.8-0.1,2.1,0.5c0.3,0.5-0.1,1.6-0.2,2.1c-0.3,0.8-0.7,1.7-1.4,2.2"/>
</g>
<path style="fill:#FFFFFF;" d="M30.1,24.6c-0.7-0.9-1.2-1.7-1.2-3c0-0.5,0-1.1,0-1.6c0-1.7,0-3.4,0-5.1c0-1.9-0.2-3.6-1.9-4.8
	c-2-1.4-5-1.5-7.3-0.7c-1.3,0.4-2.6,1.2-3.3,2.4c-0.4,0.7-1.3,2.3-0.1,2.6c0.8,0.2,1.6,0.2,2.4,0.3c1.1,0.1,0.9-0.8,1.5-1.5
	c0.7-0.9,2.2-1.2,3.3-0.7c1.1,0.6,1,2.3,1,3.3c0,0.7,0.1,0.7-0.7,0.8c-0.6,0.1-1.2,0.1-1.8,0.2c-1.4,0.2-2.9,0.5-4.2,1.3
	c-2.6,1.6-3.6,5.7-1.4,8.1c1.2,1.3,2.8,1.6,4.5,1.4c1.8-0.1,3.1-1,4.3-2.3c0.6,0.7,1.6,2.7,2.7,2c0.4-0.2,0.7-0.6,1.1-0.9
	C29.3,26,30.6,25.4,30.1,24.6z M24.4,20.1c0,1.4-0.2,2.9-1.4,3.8c-1.1,0.8-2.7,0.7-3.3-0.6c-0.5-1.1-0.1-2.4,0.8-3
	c1.1-0.8,2.6-0.8,3.9-0.8C24.4,19.7,24.4,19.9,24.4,20.1z"/>
</svg>
