<?xml version="1.0" encoding="utf-8"?>
<!-- Generator: Adobe Illustrator 21.0.0, SVG Export Plug-In . SVG Version: 6.00 Build 0)  -->
<svg version="1.1" id="Layer_1" xmlns="http://www.w3.org/2000/svg" xmlns:xlink="http://www.w3.org/1999/xlink" x="0px" y="0px"
	 viewBox="0 0 44 44" style="enable-background:new 0 0 44 44;" xml:space="preserve">
<circle style="fill:#FFA561;stroke:#FC9847;stroke-width:2;stroke-miterlimit:10;" cx="22" cy="22" r="21"/>
<path style="fill-rule:evenodd;clip-rule:evenodd;fill:#FFFFFF;" d="M34.1,26.4c0,4.2-3.4,7.6-7.6,7.6h-8.7c-4.2,0-7.6-3.4-7.6-7.6
	v-8.8c0-4.2,3.4-7.6,7.6-7.6H23c2,0.2,4.8,1.9,5.9,4.1c0.3,0.6,0.4,0.6,0.7,2.5c0.1,1,0.2,1.7,0.6,2.1c0.6,0.5,2.8,0.2,3.3,0.5
	l0.3,0.3l0.2,0.4l0.1,0.3L34.1,26.4z M24.1,17c0-0.6-0.4-1-1-1h-6c-0.6,0-1,0.4-1,1v1c0,0.6,0.4,1,1,1h6c0.6,0,1-0.4,1-1V17z
	 M28.1,26c0-0.6-0.4-1-1-1h-10c-0.6,0-1,0.4-1,1v1c0,0.6,0.4,1,1,1h10c0.6,0,1-0.4,1-1V26z"/>
</svg>
