<?xml version="1.0" encoding="utf-8"?>
<!-- Generator: Adobe Illustrator 21.0.0, SVG Export Plug-In . SVG Version: 6.00 Build 0)  -->
<svg version="1.1" id="Layer_1" xmlns="http://www.w3.org/2000/svg" xmlns:xlink="http://www.w3.org/1999/xlink" x="0px" y="0px"
	 viewBox="0 0 44 44" style="enable-background:new 0 0 44 44;" xml:space="preserve">
<circle style="fill:#6586AA;stroke:#507298;stroke-width:2;stroke-miterlimit:10;" cx="22" cy="22" r="21"/>
<path style="fill:#FFFFFF;" d="M30.4,22.8c0,0,3.7-5.2,4.1-6.9c0.1-0.6-0.1-1-0.8-1c0,0-2.1,0-3.2,0c-0.7,0-1,0.3-1.2,0.8
	c0,0-1.7,3.7-3.8,6c-0.7,0.8-1,1-1.4,1c-0.3,0-0.4-0.3-0.4-0.9v-5.9c0-0.8-0.1-1.1-0.8-1.1h-5.1c-0.4,0-0.6,0.2-0.6,0.5
	c0,0.8,1.2,1,1.2,3.1v4.4c0,0.9,0,1.2-0.5,1.2c-1.1,0-3.7-3.8-5.2-8.1c-0.3-0.9-0.6-1.1-1.4-1.1H7.9c-0.5,0-0.8,0.3-0.8,0.8
	c0,0.9,1,4.8,4.9,10.1c2.6,3.6,6.1,5.5,9.2,5.5c1.9,0,2.4-0.3,2.4-1.1v-2.7c0-0.7,0.3-1,0.7-1c0.4,0,1.2,0.1,3,1.9
	c2.2,2.1,2.3,2.9,3.5,2.9h3.6c0.4,0,0.7-0.2,0.7-0.8c0-0.8-1.1-2.2-2.7-4c-0.7-0.9-1.7-1.8-2.1-2.3C29.9,23.7,30,23.4,30.4,22.8z"/>
</svg>
