<?xml version="1.0" encoding="utf-8"?>
<!-- Generator: Adobe Illustrator 21.0.0, SVG Export Plug-In . SVG Version: 6.00 Build 0)  -->
<svg version="1.1" id="Layer_1" xmlns="http://www.w3.org/2000/svg" xmlns:xlink="http://www.w3.org/1999/xlink" x="0px" y="0px"
	 viewBox="0 0 44 44" style="enable-background:new 0 0 44 44;" xml:space="preserve">
<circle style="fill:#2C3826;stroke:#182413;stroke-width:2;stroke-miterlimit:10;" cx="22" cy="22" r="21"/>
<path style="fill-rule:evenodd;clip-rule:evenodd;fill:#5CBB6C;" d="M19.8,18.5l4-5.8c0.7-1.1,1.7-1.7,2.9-1.7c1,0,1.8,0.3,2.5,1
	c0.7,0.7,1.1,1.5,1.1,2.5c0,0.7-0.2,1.4-0.6,1.9l-3.6,5.3l4.4,5.6c0.4,0.6,0.7,1.2,0.7,2c0,1-0.3,1.9-1,2.6
	c-0.7,0.7-1.5,1.1-2.5,1.1c-1.1,0-1.9-0.4-2.4-1.1l-5.3-6.8v3.7c0,1.1-0.2,1.9-0.5,2.5c-0.7,1.1-1.6,1.6-2.9,1.6
	c-1.2,0-2-0.4-2.7-1.2c-0.6-0.7-0.9-1.7-0.9-2.9V15c0-1.1,0.3-2.1,0.9-2.8c0.6-0.8,1.5-1.2,2.6-1.2c1.1,0,1.9,0.4,2.7,1.2
	c0.4,0.4,0.6,0.9,0.7,1.3c0.1,0.3,0.1,0.8,0.1,1.5V18.5z"/>
</svg>
