<?xml version="1.0" encoding="utf-8"?>
<!-- Generator: Adobe Illustrator 21.0.0, SVG Export Plug-In . SVG Version: 6.00 Build 0)  -->
<svg version="1.1" id="Layer_1" xmlns="http://www.w3.org/2000/svg" xmlns:xlink="http://www.w3.org/1999/xlink" x="0px" y="0px"
	 viewBox="0 0 44 44" style="enable-background:new 0 0 44 44;" xml:space="preserve">
<circle style="fill:#A5B76D;stroke:#8DA554;stroke-width:2;stroke-miterlimit:10;" cx="22" cy="22" r="21"/>
<g>
	<path style="fill:#FFFFFF;" d="M33,20c0-1-0.4-7.1-0.4-7.1c0-1-0.3-1.6-0.8-2.1c-0.4-0.4-1.1-0.8-2-0.8c0,0-5.9-0.4-6.9-0.4
		c-1.5,0-2.4-0.1-4.1,1.8c-0.9,0.9-10.5,10.9-11,11.3c-0.4,0.4-1.8,2.1,0.6,4.5l7.6,7.9c2.4,2.4,4,1,4.4,0.6s10.1-10.4,11-11.3
		C33.1,22.4,33,21.4,33,20z M28.4,16c-0.9,0-1.5-0.8-1.5-1.6c0-0.9,0.7-1.6,1.5-1.6c0.9,0,1.5,0.8,1.5,1.6
		C29.9,15.4,29.2,16,28.4,16z"/>
	
		<line style="fill:#FFFFFF;stroke:#8DA554;stroke-width:2;stroke-linecap:round;stroke-miterlimit:10;" x1="20" y1="17.5" x2="20" y2="28.2"/>
	
		<line style="fill:#FFFFFF;stroke:#8DA554;stroke-width:2;stroke-linecap:round;stroke-miterlimit:10;" x1="15.3" y1="25.6" x2="24.6" y2="20.2"/>
	
		<line style="fill:#FFFFFF;stroke:#8DA554;stroke-width:2;stroke-linecap:round;stroke-miterlimit:10;" x1="24.7" y1="25.6" x2="15.4" y2="20.2"/>
</g>
</svg>
