<?xml version="1.0" encoding="utf-8"?>
<!-- Generator: Adobe Illustrator 21.0.0, SVG Export Plug-In . SVG Version: 6.00 Build 0)  -->
<svg version="1.1" id="Layer_1" xmlns="http://www.w3.org/2000/svg" xmlns:xlink="http://www.w3.org/1999/xlink" x="0px" y="0px"
	 viewBox="0 0 44 44" style="enable-background:new 0 0 44 44;" xml:space="preserve">
<circle style="fill:#3683F2;stroke:#1E6FED;stroke-width:2;stroke-miterlimit:10;" cx="22" cy="22" r="21"/>
<g>
	<path style="fill:none;stroke:#FFFFFF;stroke-width:2;stroke-miterlimit:10;" d="M17.1,15.6h-5.8v6.2h5.8c1.7,0,3.1-1.4,3.1-3.1
		S18.8,15.6,17.1,15.6z"/>
	<path style="fill:none;stroke:#FFFFFF;stroke-width:2;stroke-miterlimit:10;" d="M17.6,28.3h-6.4v-6.5h6.4c1.9,0,3.4,1.5,3.4,3.3
		C21,26.8,19.5,28.3,17.6,28.3z"/>
	<path style="fill:none;stroke:#FFFFFF;stroke-width:2;stroke-miterlimit:10;" d="M24.6,23.2h8.2c0,0-0.2-4.1-4.3-4.1
		c-4.3,0-6,5.4-2.7,8.1c2.9,2.4,6.8,0.3,6.8-1.6"/>
	<line style="fill:none;stroke:#FFFFFF;stroke-width:2;stroke-miterlimit:10;" x1="25.8" y1="16.1" x2="31.8" y2="16.1"/>
</g>
</svg>
