<?xml version="1.0" encoding="utf-8"?>
<!-- Generator: Adobe Illustrator 21.0.0, SVG Export Plug-In . SVG Version: 6.00 Build 0)  -->
<svg version="1.1" id="Layer_1" xmlns="http://www.w3.org/2000/svg" xmlns:xlink="http://www.w3.org/1999/xlink" x="0px" y="0px"
	 viewBox="0 0 44 44" style="enable-background:new 0 0 44 44;" xml:space="preserve">
<circle style="fill:#F5EA16;stroke:#F5EA16;stroke-width:2;stroke-miterlimit:10;" cx="22" cy="22" r="21"/>
<path style="fill:#FFFFFF;stroke:#000000;stroke-width:2;stroke-miterlimit:10;" d="M22.2,33.5c-0.1,0-0.1,0-0.2,0c0,0-0.1,0-0.1,0
	c-1.5,0-2.6-0.7-3.5-1.3c-0.7-0.4-1.3-0.8-2-1c-0.4-0.1-0.7-0.1-1.1-0.1c-0.6,0-1.1,0.1-1.5,0.2c-0.2,0-0.4,0.1-0.6,0.1
	c-0.2,0-0.3,0-0.4-0.3c-0.1-0.2-0.1-0.4-0.1-0.6c-0.1-0.5-0.2-0.7-0.4-0.8c-1.9-0.3-3.1-0.7-3.3-1.2c0-0.1,0-0.1,0-0.2
	c0-0.2,0.1-0.3,0.3-0.3c1.5-0.2,2.9-1,4.1-2.3c0.9-1,1.3-1.9,1.4-2c0,0,0,0,0,0c0.2-0.4,0.3-0.8,0.1-1.1c-0.3-0.6-1.1-0.8-1.6-1
	c-0.1,0-0.3-0.1-0.4-0.1c-0.5-0.2-1.3-0.6-1.2-1.1c0.1-0.4,0.6-0.7,1.1-0.7c0.1,0,0.2,0,0.3,0.1c0.5,0.2,0.9,0.3,1.3,0.3
	c0.5,0,0.7-0.2,0.8-0.2c0-0.2,0-0.5,0-0.7c0,0,0,0,0,0c-0.1-1.7-0.3-3.7,0.3-4.9c1.7-3.6,5.3-3.8,6.3-3.8c0,0,0.5,0,0.5,0
	c0,0,0,0,0.1,0c1.1,0,4.6,0.3,6.3,3.8c0.6,1.2,0.4,3.3,0.3,4.9l0,0.1c0,0.2,0,0.4,0,0.6c0.1,0,0.3,0.2,0.7,0.2
	c0.4,0,0.8-0.1,1.2-0.3c0.1-0.1,0.3-0.1,0.4-0.1c0.2,0,0.3,0,0.5,0.1l0,0c0.4,0.1,0.6,0.4,0.7,0.7c0,0.3-0.2,0.6-1.2,1
	c-0.1,0-0.2,0.1-0.4,0.1c-0.5,0.2-1.4,0.4-1.6,1C29,23,29,23.3,29.3,23.8c0,0,0,0,0,0c0.1,0.2,1.7,3.7,5.5,4.3
	c0.2,0,0.3,0.2,0.3,0.3c0,0.1,0,0.1,0,0.2c-0.2,0.5-1.4,0.9-3.3,1.2c-0.2,0-0.3,0.3-0.4,0.8c0,0.2-0.1,0.4-0.1,0.6
	c-0.1,0.2-0.2,0.3-0.4,0.3h0c-0.1,0-0.3,0-0.6-0.1c-0.4-0.1-0.9-0.1-1.5-0.1c-0.3,0-0.7,0-1.1,0.1c-0.7,0.1-1.3,0.5-2,1
	C24.7,32.8,23.7,33.5,22.2,33.5"/>
</svg>
