<?xml version="1.0" encoding="utf-8"?>
<!-- Generator: Adobe Illustrator 21.0.0, SVG Export Plug-In . SVG Version: 6.00 Build 0)  -->
<svg version="1.1" id="Layer_1" xmlns="http://www.w3.org/2000/svg" xmlns:xlink="http://www.w3.org/1999/xlink" x="0px" y="0px"
	 viewBox="0 0 44 44" style="enable-background:new 0 0 44 44;" xml:space="preserve">
<path style="fill:#61BC68;stroke:#37B34A;stroke-width:2;stroke-miterlimit:10;" d="M21.9,43c-3.4,0-7-0.9-10.1-2.5l-0.5-0.3
	l-9.8,2.5L4.1,33l-0.3-0.6C1.9,29.3,1,25.8,1,22C0.9,16.4,3.1,11.2,7,7.2c4-4,9.3-6.2,15-6.2c5.6,0,10.9,2.2,14.9,6.2
	C40.8,11.1,43,16.4,43,22C43,33.6,33.5,43,21.9,43z"/>
<path style="fill:#FFFFFF;" d="M16.3,12.4c-0.4-1.1-0.9-1-1.3-1c-0.3,0-0.7,0-1.1,0c-0.4,0-1,0.1-1.6,0.7c-0.4,0.6-1.9,2-1.9,4.7
	c0,2.8,2,5.4,2.3,5.8s4,6.1,9.7,8.5c1.3,0.6,2.4,1,3.3,1.1c1.3,0.4,2.6,0.4,3.6,0.3c1.1-0.1,3.3-1.4,3.8-2.7
	c0.4-1.3,0.4-2.4,0.3-2.7c-0.1-0.3-0.6-0.4-1.1-0.7c-0.6-0.1-3.3-1.6-3.8-1.7c-0.6-0.1-0.9-0.3-1.3,0.3c-0.4,0.6-1.4,1.8-1.9,2.3
	c-0.3,0.4-0.7,0.4-1.3,0.1c-0.6-0.3-2.4-0.8-4.6-2.8c-1.7-1.6-2.8-3.3-3.1-3.8c-0.3-0.6,0-0.8,0.3-1.1c0.3-0.3,0.6-0.7,0.9-1
	c0.3-0.3,0.4-0.6,0.6-1c0.1-0.4,0.1-0.7,0-1C17.9,16.4,16.8,13.5,16.3,12.4z"/>
</svg>
